<svg id="Layer_1" data-name="Layer 1" xmlns="http://www.w3.org/2000/svg" viewBox="0 0 114 14"><defs><style>.cls-1{fill:#fff;}</style></defs><title>logo</title><path class="cls-1" d="M32.28,4.34V5.77L28.07,7.44l4.21,1.68v1.42L26,8V6.86Z"/><path class="cls-1" d="M40.5,9.84a2.79,2.79,0,0,0,1.79-.69l1,1.24a4.57,4.57,0,0,1-2.82.95A4.21,4.21,0,0,1,36,7,4.37,4.37,0,0,1,40.5,2.66a4.74,4.74,0,0,1,2.58.81l-.83,1.34a2.86,2.86,0,0,0-1.75-.65A2.68,2.68,0,0,0,37.87,7,2.57,2.57,0,0,0,40.5,9.84Z"/><path class="cls-1" d="M48.06,9.84a2.79,2.79,0,0,0,1.79-.69l1,1.24a4.57,4.57,0,0,1-2.82.95A4.21,4.21,0,0,1,43.59,7a4.37,4.37,0,0,1,4.47-4.34,4.74,4.74,0,0,1,2.58.81l-.83,1.34a2.86,2.86,0,0,0-1.75-.65A2.69,2.69,0,0,0,45.42,7,2.58,2.58,0,0,0,48.06,9.84Z"/><path class="cls-1" d="M57.42,11.2H56.2L53.75,5.05V11.2H52V2.8h2.53l2.25,5.85L59.16,2.8h2.48v8.4H59.93V5.07Z"/><path class="cls-1" d="M63.51,2.8H66c2.17,0,4.6,1.13,4.6,4.16s-2.41,4.24-4.71,4.24H63.51Zm1.71,7h.2c2,0,3.31-.7,3.31-2.68s-1.1-2.82-3-2.82h-.53Z"/><path class="cls-1" d="M74.3,2.8a4.2,4.2,0,0,1,2.27.54,2.12,2.12,0,0,1,1,1.84A1.73,1.73,0,0,1,76.5,6.8a2,2,0,0,1,1.41,1.9,2.3,2.3,0,0,1-1.5,2.16,5.89,5.89,0,0,1-2.21.34H72.09V2.8Zm-.5,3.42h.48c1,0,1.56-.32,1.56-1a.89.89,0,0,0-.36-.78,2.46,2.46,0,0,0-1.34-.22H73.8Zm0,3.54h.4a3.36,3.36,0,0,0,1.39-.18.86.86,0,0,0,.48-.84c0-.7-.46-1.13-1.31-1.13h-1Z"/><path class="cls-1" d="M88,6.86V8L81.7,10.54V9.12l4.21-1.68L81.7,5.77V4.34Z"/></svg>